<?xml version="1.0" encoding="UTF-8"?> <svg xmlns="http://www.w3.org/2000/svg" width="61" height="53" viewBox="0 0 61 53" fill="none"><path d="M4.46026 49.8849C3.0548 49.8849 1.95715 49.4873 1.16734 48.6921C0.389115 47.897 0 46.734 0 45.203V37.0323H0.958263V45.0962C0.958263 46.4609 1.25445 47.4637 1.84684 48.1046C2.43919 48.7337 3.31615 49.0481 4.47767 49.0481C5.67405 49.0481 6.56844 48.7278 7.16083 48.0869C7.76482 47.446 8.06682 46.3721 8.06682 44.865V37.0323H9.04249V45.0071C9.04249 46.5264 8.66501 47.7191 7.91 48.5854C7.16663 49.4516 6.01673 49.8849 4.46026 49.8849ZM16.8767 49.9025C16.4237 49.9025 16.0113 49.8374 15.6396 49.7067C15.2679 49.5764 14.9369 49.41 14.6465 49.2082C14.3561 48.9947 14.1064 48.7514 13.8973 48.4786C13.6999 48.2055 13.5373 47.9268 13.4095 47.6418V49.7601H12.4861V36H13.4095V42.622C13.5373 42.3135 13.7115 42.0227 13.9322 41.7495C14.1645 41.4649 14.4316 41.2157 14.7336 41.0018C15.0356 40.7883 15.3667 40.6223 15.7267 40.5037C16.0984 40.3731 16.4817 40.3079 16.8767 40.3079C17.4574 40.3079 17.9917 40.4205 18.4796 40.6459C18.979 40.8597 19.4146 41.1682 19.7863 41.5717C20.158 41.9752 20.4484 42.4677 20.6574 43.049C20.8665 43.6307 20.9711 44.2834 20.9711 45.0071V45.1496C20.9711 45.8737 20.8665 46.5323 20.6574 47.1257C20.46 47.707 20.1754 48.2054 19.8037 48.6211C19.4437 49.0363 19.0139 49.3566 18.5144 49.5823C18.015 49.7958 17.4691 49.9025 16.8767 49.9025ZM16.807 49.1015C17.7711 49.1015 18.5435 48.7632 19.1242 48.0869C19.7166 47.4103 20.0128 46.4432 20.0128 45.1853V45.0428C20.0128 44.4019 19.9257 43.8383 19.7515 43.3516C19.5772 42.8532 19.3449 42.4438 19.0545 42.1235C18.7642 41.7911 18.4215 41.5419 18.0266 41.3758C17.6433 41.1977 17.2309 41.1089 16.7895 41.1089C16.3482 41.1089 15.9184 41.1977 15.5003 41.3758C15.0937 41.5419 14.7336 41.7911 14.42 42.1235C14.1064 42.4438 13.8567 42.8532 13.6708 43.3516C13.485 43.8383 13.392 44.4019 13.392 45.0428V45.1853C13.392 45.8262 13.4792 46.3898 13.6534 46.8765C13.8393 47.3628 14.0832 47.7725 14.3852 48.1046C14.6988 48.4252 15.0588 48.6744 15.4654 48.8523C15.8835 49.0186 16.3308 49.1015 16.807 49.1015ZM23.7988 40.45H24.7222V49.7601H23.7988V40.45ZM24.2518 38.4565C24.066 38.4565 23.9092 38.391 23.7814 38.2607C23.6536 38.13 23.5897 37.9699 23.5897 37.7799C23.5897 37.6021 23.6536 37.4475 23.7814 37.3172C23.9092 37.1865 24.066 37.1213 24.2518 37.1213C24.4377 37.1213 24.5887 37.1865 24.7048 37.3172C24.8326 37.4475 24.8965 37.6021 24.8965 37.7799C24.8965 37.9699 24.8326 38.13 24.7048 38.2607C24.5887 38.391 24.4377 38.4565 24.2518 38.4565ZM33.8119 49.0658C34.5554 49.0658 35.2346 48.9237 35.8504 48.6387C36.4659 48.3538 36.9945 47.9621 37.4359 47.4637C37.8773 46.9656 38.22 46.3721 38.4639 45.6837C38.7079 44.9953 38.8297 44.2418 38.8297 43.423V43.2806C38.8297 42.5093 38.7079 41.7852 38.4639 41.1089C38.2315 40.4323 37.8946 39.8448 37.4532 39.3463C37.0118 38.8361 36.4778 38.4385 35.8504 38.1539C35.2346 37.8572 34.5435 37.7089 33.7771 37.7089C33.0105 37.7089 32.3135 37.8513 31.6863 38.1359C31.0707 38.4208 30.5422 38.8125 30.1008 39.311C29.6594 39.8094 29.3168 40.4029 29.0729 41.0909C28.8289 41.7675 28.707 42.5093 28.707 43.3163V43.4587C28.707 44.2657 28.8347 45.0134 29.0903 45.7014C29.3574 46.3898 29.7175 46.9832 30.1705 47.4817C30.6351 47.9801 31.1752 48.3718 31.7908 48.6564C32.4181 48.9296 33.0918 49.0658 33.8119 49.0658ZM33.8119 49.9025C32.9291 49.9025 32.1103 49.7365 31.3553 49.4041C30.6119 49.0599 29.9672 48.603 29.4213 48.0335C28.887 47.4519 28.4689 46.7697 28.1668 45.9863C27.8649 45.203 27.7139 44.3665 27.7139 43.4764V43.3339C27.7139 42.432 27.8649 41.5894 28.1668 40.8063C28.4689 40.023 28.887 39.3404 29.4213 38.7592C29.9672 38.1775 30.6119 37.7207 31.3553 37.3882C32.0986 37.0562 32.9059 36.8898 33.7771 36.8898C34.6599 36.8898 35.4671 37.0562 36.1989 37.3882C36.9423 37.7207 37.5811 38.1775 38.1155 38.7592C38.6614 39.3287 39.0852 40.0053 39.3871 40.7883C39.6894 41.5717 39.8404 42.4085 39.8404 43.2982V43.4407C39.8404 44.3426 39.6894 45.1853 39.3871 45.9687C39.0852 46.7517 38.6672 47.4342 38.1328 48.0158C37.5984 48.5971 36.9596 49.0599 36.2162 49.4041C35.4844 49.7365 34.683 49.9025 33.8119 49.9025ZM42.781 40.45H43.7045V42.622C43.8321 42.3135 44.0065 42.0227 44.227 41.7495C44.4594 41.4649 44.7265 41.2157 45.0284 41.0018C45.3307 40.7883 45.6615 40.6223 46.0215 40.5037C46.3934 40.3731 46.7767 40.3079 47.1717 40.3079C47.7522 40.3079 48.2866 40.4205 48.7744 40.6459C49.2739 40.8597 49.7095 41.1682 50.0814 41.5717C50.4529 41.9752 50.7433 42.4677 50.9523 43.049C51.1613 43.6307 51.2661 44.2834 51.2661 45.0071V45.1496C51.2661 45.8737 51.1613 46.5323 50.9523 47.1257C50.7548 47.707 50.4702 48.2054 50.0987 48.6211C49.7387 49.0363 49.3088 49.3566 48.8094 49.5823C48.31 49.7958 47.7641 49.9025 47.1717 49.9025C46.7187 49.9025 46.3062 49.8374 45.9346 49.7067C45.5628 49.5764 45.232 49.41 44.9416 49.2082C44.6511 48.9947 44.4014 48.7514 44.1921 48.4786C43.995 48.2055 43.8321 47.9268 43.7045 47.6418V53H42.781V40.45ZM47.1018 49.1015C48.066 49.1015 48.8382 48.7632 49.4191 48.0869C50.0115 47.4103 50.3077 46.4432 50.3077 45.1853V45.0428C50.3077 44.4019 50.2205 43.8383 50.0464 43.3516C49.872 42.8532 49.64 42.4438 49.3495 42.1235C49.0591 41.7911 48.7164 41.5419 48.3215 41.3758C47.9381 41.1977 47.5259 41.1089 47.0845 41.1089C46.6431 41.1089 46.2132 41.1977 45.7952 41.3758C45.3887 41.5419 45.0284 41.7911 44.7149 42.1235C44.4014 42.4438 44.1517 42.8532 43.9658 43.3516C43.7798 43.8383 43.6869 44.4019 43.6869 45.0428V45.1853C43.6869 45.8262 43.7741 46.3898 43.9485 46.8765C44.1341 47.3628 44.378 47.7725 44.68 48.1046C44.9938 48.4252 45.3538 48.6744 45.7602 48.8523C46.1786 49.0186 46.6258 49.1015 47.1018 49.1015ZM56.7944 49.9206C55.7142 49.9206 54.8721 49.6533 54.2681 49.1195C53.6757 48.5854 53.3504 47.8734 53.2924 46.9832H54.1809C54.262 47.6242 54.506 48.1403 54.9128 48.532C55.3192 48.9237 55.9462 49.1195 56.7944 49.1195C57.5609 49.1195 58.136 48.959 58.519 48.6387C58.9139 48.3063 59.1114 47.8554 59.1114 47.2858C59.1114 46.9891 59.0653 46.7399 58.9723 46.5382C58.8909 46.3364 58.7514 46.1645 58.554 46.022C58.368 45.8796 58.1241 45.7607 57.8221 45.6661C57.5202 45.5711 57.1544 45.482 56.7245 45.3988C56.1671 45.292 55.6908 45.1735 55.2958 45.0428C54.9009 44.9125 54.5759 44.7461 54.3204 44.5444C54.0646 44.3426 53.879 44.1052 53.7626 43.8324C53.6466 43.5475 53.5885 43.2033 53.5885 42.7998C53.5885 42.4085 53.6696 42.0584 53.8325 41.7495C54.0065 41.441 54.2332 41.18 54.5117 40.9665C54.7906 40.7526 55.1102 40.5925 55.4702 40.4857C55.8302 40.3672 56.2021 40.3079 56.5851 40.3079C56.9919 40.3079 57.375 40.3554 57.7353 40.45C58.0953 40.5332 58.4145 40.6757 58.6934 40.8774C58.9723 41.0791 59.2044 41.3401 59.3903 41.6608C59.5762 41.9811 59.698 42.3727 59.7561 42.8355H58.8678C58.7514 42.2303 58.5017 41.7911 58.1183 41.5183C57.7468 41.2452 57.2297 41.1089 56.5678 41.1089C55.9289 41.1089 55.4122 41.2632 55.0173 41.5717C54.6339 41.8684 54.4422 42.266 54.4422 42.7644C54.4422 43.0254 54.4829 43.2508 54.564 43.4407C54.657 43.6307 54.7964 43.7967 54.9823 43.9392C55.1798 44.0698 55.4353 44.1884 55.7488 44.2951C56.0741 44.3901 56.4691 44.4792 56.9335 44.5624C57.4214 44.6452 57.8571 44.7461 58.2405 44.865C58.6239 44.9835 58.9431 45.1437 59.1986 45.3454C59.466 45.5354 59.6634 45.7846 59.791 46.0931C59.9304 46.3898 60 46.7638 60 47.2148C60 47.9978 59.7272 48.6446 59.1813 49.1549C58.6354 49.6651 57.8398 49.9206 56.7944 49.9206Z" fill="#263548"></path><path d="M9.50493 5.06254C10.2419 4.96354 10.9854 4.92264 11.7286 4.94022C13.6688 4.8902 15.5995 5.22612 17.4088 5.92843C18.7725 6.42644 20.0287 7.18032 21.1098 8.14962C23.0466 9.99093 24.747 12.0659 26.172 14.3269C28.5181 18.032 30.6195 22.2328 33.9534 25.8155C35.6757 27.6644 37.7291 29.1744 40.007 30.2673C42.6919 31.4443 45.5973 32.0337 48.5284 31.9959C49.3543 32.0138 50.1802 31.973 51 31.8736L50.63 26.9324C49.9353 27.0346 49.2332 27.0755 48.5318 27.0548C46.5517 27.0921 44.5825 26.7569 42.7261 26.0666C40.0043 24.9143 37.6534 23.0329 35.9325 20.6296C34.4615 18.6044 33.1005 16.5015 31.8552 14.33C29.9543 10.7105 27.492 7.41531 24.5599 4.56687C22.8978 3.13464 21.0227 1.97033 19.0021 1.11588C16.6436 0.379407 14.1869 0.00495201 11.7162 0.00528714C10.809 -0.0155722 9.90156 0.0253064 9 0.127641L9.50493 5.06254Z" fill="#6C788C"></path><path d="M61 8.7889V19H55.7413V9.13997C55.7454 8.54009 55.5288 7.95809 55.1296 7.49663C54.6663 6.94868 54.0815 6.50716 53.4174 6.20435C52.8606 5.9462 52.28 5.73751 51.6837 5.58091L51.3901 5.51129C51.0932 5.43078 50.7907 5.36813 50.4856 5.32366C50.2926 5.27601 50.0966 5.24063 49.8992 5.21773C49.0823 5.09611 48.2568 5.03339 47.4304 5.03011C46.4069 5.04557 45.385 5.12442 44.3721 5.26615C42.6128 5.44538 40.9299 6.05153 39.4823 7.02753C37.9743 8.21985 36.7977 9.75252 36.0581 11.4885C35.6926 10.9014 33.6116 7.73267 33 6.79447C33.0469 6.67786 33.1083 6.56709 33.1829 6.46462C34.438 4.49925 36.2365 2.90681 38.3786 1.86446C40.0165 1.15229 41.7424 0.643781 43.5146 0.351261C44.846 0.118025 46.1968 0.000527698 47.55 0.00019907C49.7386 -0.0084915 51.9179 0.267402 54.029 0.820357C56.1838 1.44089 58.0713 2.71513 59.4078 4.45206C60.3317 5.73568 60.8814 7.23291 61 8.7889Z" fill="#F2682A"></path><path d="M28 24.8467C26.7587 27.0798 24.8855 28.8872 22.6207 30.037C20.9825 30.7866 19.2565 31.322 17.4842 31.6302C16.1526 31.8757 14.8018 31.9994 13.4482 31.9998C11.2597 32.009 9.07982 31.7185 6.96849 31.1363C4.81345 30.483 2.92605 29.1415 1.58915 27.3128C1.40629 27.042 1.23604 26.7552 1.06261 26.4494C0.892661 26.1253 0.742094 25.7913 0.611709 25.449C0.275047 24.5833 0.0688446 23.6714 0 22.7438V12H5.25949V22.3806C5.25519 23.0122 5.47185 23.6249 5.87118 24.1107C6.33433 24.6877 6.91936 25.1525 7.58328 25.4712C9.47069 26.3088 11.5131 26.7302 13.5743 26.7075C14.5981 26.6912 15.6197 26.6081 16.6328 26.459C17.7653 26.3071 18.8717 25.9994 19.9216 25.5446C19.9216 25.5446 19.9216 25.5446 19.9469 25.5446C20.1384 25.4641 20.3258 25.3737 20.508 25.2738C20.863 25.0822 21.2025 24.8627 21.5234 24.6174C23.0316 23.362 24.2081 21.7485 24.9477 19.9209C25.3103 20.5263 27.3882 23.8622 28 24.8467Z" fill="#F2622A"></path></svg> 